<svg xmlns="http://www.w3.org/2000/svg" width="512" height="512" viewBox="0 0 512 512" role="img" aria-label="Seoul Sister">
  <title>Seoul Sister</title>
  <!--
    Seoul Sister — the interlocked double-S. Bailey's mark.

    TWO NON-OBVIOUS THINGS, both learned the hard way:

    1. WIDTH ATTRIBUTES ARE REQUIRED. An SVG with only a viewBox has no intrinsic
       size, and loaded through an <img> tag WebKit renders NOTHING. Do not remove
       width/height. (sharp rasterises it fine, which is why this went unnoticed —
       verify with qlmanage, which uses WebKit like Safari.)

    2. IT IS STROKED SEGMENTS, NOT A FILLED OUTLINE. The calligraphic taper comes
       from many short stroked segments of varying width. An earlier build offset a
       spine into a filled outline and rendered as two gold CLAWS: offsetting by
       more than the local radius of curvature makes the edges self-intersect and
       fill-rule fills the wrong regions. Do not "simplify" this back to one path.

    Geometry: two equal S glyphs, offset +/-(78,88) on a -14deg diagonal, so they
    read as balanced partners. An earlier version used (44,60) and the upper-left S
    visually swallowed the lower-right one.
  -->
  <rect width="512" height="512" fill="#FAF7F2"/>
  <g stroke="#1F2430" stroke-linecap="round" fill="none">
    <path d="M260.5 58.5L254.8 58" stroke-width="5"/>
    <path d="M254.8 58L249 57.8" stroke-width="5.9"/>
    <path d="M249 57.8L243.1 57.7" stroke-width="6.9"/>
    <path d="M243.1 57.7L237.3 57.8" stroke-width="7.9"/>
    <path d="M237.3 57.8L231.4 58.2" stroke-width="8.9"/>
    <path d="M231.4 58.2L225.5 58.7" stroke-width="9.8"/>
    <path d="M225.5 58.7L219.6 59.4" stroke-width="10.8"/>
    <path d="M219.6 59.4L213.7 60.3" stroke-width="11.9"/>
    <path d="M213.7 60.3L207.9 61.4" stroke-width="12.9"/>
    <path d="M207.9 61.4L202.1 62.7" stroke-width="13.9"/>
    <path d="M202.1 62.7L196.3 64.1" stroke-width="14.9"/>
    <path d="M196.3 64.1L190.6 65.7" stroke-width="15.9"/>
    <path d="M190.6 65.7L185 67.5" stroke-width="16.9"/>
    <path d="M185 67.5L179.5 69.4" stroke-width="17.9"/>
    <path d="M179.5 69.4L174.1 71.5" stroke-width="19"/>
    <path d="M174.1 71.5L168.9 73.7" stroke-width="20"/>
    <path d="M168.9 73.7L163.7 76.1" stroke-width="21"/>
    <path d="M163.7 76.1L158.7 78.5" stroke-width="22"/>
    <path d="M158.7 78.5L153.9 81.2" stroke-width="23"/>
    <path d="M153.9 81.2L149.2 83.9" stroke-width="24.1"/>
    <path d="M149.2 83.9L144.8 86.8" stroke-width="25.1"/>
    <path d="M144.8 86.8L140.5 89.7" stroke-width="25.7"/>
    <path d="M140.5 89.7L136.4 92.8" stroke-width="26"/>
    <path d="M136.4 92.8L132.5 96" stroke-width="26.4"/>
    <path d="M132.5 96L128.9 99.3" stroke-width="26.8"/>
    <path d="M128.9 99.3L125.6 102.7" stroke-width="27.1"/>
    <path d="M125.6 102.7L122.5 106.2" stroke-width="27.4"/>
    <path d="M122.5 106.2L119.6 109.8" stroke-width="27.8"/>
    <path d="M119.6 109.8L117.1 113.4" stroke-width="28.1"/>
    <path d="M117.1 113.4L114.8 117.2" stroke-width="28.4"/>
    <path d="M114.8 117.2L112.9 121" stroke-width="28.7"/>
    <path d="M112.9 121L111.3 124.8" stroke-width="29"/>
    <path d="M111.3 124.8L110 128.8" stroke-width="29.2"/>
    <path d="M110 128.8L109.1 132.7" stroke-width="29.5"/>
    <path d="M109.1 132.7L108.5 136.8" stroke-width="29.8"/>
    <path d="M108.5 136.8L108.3 140.9" stroke-width="30"/>
    <path d="M108.3 140.9L108.5 145" stroke-width="30.3"/>
    <path d="M108.5 145L109.1 149.1" stroke-width="30.5"/>
    <path d="M109.1 149.1L110.1 153.3" stroke-width="30.7"/>
    <path d="M110.1 153.3L111.6 157.6" stroke-width="30.9"/>
    <path d="M111.6 157.6L113.1 161" stroke-width="31.1"/>
    <path d="M113.1 161L114.9 164.2" stroke-width="31.3"/>
    <path d="M114.9 164.2L116.9 167.2" stroke-width="31.4"/>
    <path d="M116.9 167.2L119.1 170" stroke-width="31.6"/>
    <path d="M119.1 170L121.6 172.5" stroke-width="31.7"/>
    <path d="M121.6 172.5L124.2 174.8" stroke-width="31.8"/>
    <path d="M124.2 174.8L127.1 177" stroke-width="31.8"/>
    <path d="M127.1 177L130.1 178.9" stroke-width="31.9"/>
    <path d="M130.1 178.9L133.2 180.7" stroke-width="31.9"/>
    <path d="M133.2 180.7L136.6 182.3" stroke-width="31.9"/>
    <path d="M136.6 182.3L140 183.7" stroke-width="31.8"/>
    <path d="M140 183.7L143.6 185.1" stroke-width="31.8"/>
    <path d="M143.6 185.1L147.4 186.2" stroke-width="31.6"/>
    <path d="M147.4 186.2L151.2 187.3" stroke-width="31.5"/>
    <path d="M151.2 187.3L155.1 188.2" stroke-width="31.2"/>
    <path d="M155.1 188.2L159.1 189" stroke-width="31"/>
    <path d="M159.1 189L163.2 189.8" stroke-width="30.7"/>
    <path d="M163.2 189.8L167.3 190.4" stroke-width="30.3"/>
    <path d="M167.3 190.4L171.5 191" stroke-width="30"/>
    <path d="M171.5 191L175.7 191.5" stroke-width="29.6"/>
    <path d="M175.7 191.5L180 192" stroke-width="29.1"/>
    <path d="M180 192L184.2 192.4" stroke-width="28.7"/>
    <path d="M184.2 192.4L188.5 192.8" stroke-width="28.2"/>
    <path d="M188.5 192.8L192.7 193.1" stroke-width="27.7"/>
    <path d="M192.7 193.1L197 193.5" stroke-width="27.3"/>
    <path d="M197 193.5L201.2 193.8" stroke-width="26.8"/>
    <path d="M201.2 193.8L205.3 194.2" stroke-width="26.4"/>
    <path d="M205.3 194.2L209.4 194.5" stroke-width="26"/>
    <path d="M209.4 194.5L213.4 194.9" stroke-width="25.6"/>
    <path d="M213.4 194.9L217.3 195.3" stroke-width="25.3"/>
    <path d="M217.3 195.3L221.2 195.8" stroke-width="25.1"/>
    <path d="M221.2 195.8L224.9 196.3" stroke-width="24.9"/>
    <path d="M224.9 196.3L228.5 196.9" stroke-width="24.8"/>
    <path d="M228.5 196.9L232 197.6" stroke-width="24.8"/>
    <path d="M232 197.6L235.4 198.4" stroke-width="24.8"/>
    <path d="M235.4 198.4L238.6 199.2" stroke-width="24.9"/>
    <path d="M238.6 199.2L241.6 200.2" stroke-width="25.1"/>
    <path d="M241.6 200.2L244.5 201.3" stroke-width="25.4"/>
    <path d="M244.5 201.3L247.2 202.5" stroke-width="25.8"/>
    <path d="M247.2 202.5L249.6 203.9" stroke-width="26.1"/>
    <path d="M249.6 203.9L252.4 205.5" stroke-width="26.6"/>
    <path d="M252.4 205.5L255 207.3" stroke-width="27.1"/>
    <path d="M255 207.3L257.4 209.1" stroke-width="27.6"/>
    <path d="M257.4 209.1L259.7 211" stroke-width="28.1"/>
    <path d="M259.7 211L261.9 213" stroke-width="28.7"/>
    <path d="M261.9 213L263.8 215.1" stroke-width="29.2"/>
    <path d="M263.8 215.1L265.7 217.2" stroke-width="29.7"/>
    <path d="M265.7 217.2L267.3 219.4" stroke-width="30.2"/>
    <path d="M267.3 219.4L268.8 221.6" stroke-width="30.7"/>
    <path d="M268.8 221.6L270.2 223.9" stroke-width="31.2"/>
    <path d="M270.2 223.9L271.3 226.2" stroke-width="31.6"/>
    <path d="M271.3 226.2L272.3 228.6" stroke-width="32"/>
    <path d="M272.3 228.6L273.2 231" stroke-width="32.3"/>
    <path d="M273.2 231L273.8 233.5" stroke-width="32.6"/>
    <path d="M273.8 233.5L274.3 236" stroke-width="32.9"/>
    <path d="M274.3 236L274.6 238.4" stroke-width="33.1"/>
    <path d="M274.6 238.4L274.8 241" stroke-width="33.3"/>
    <path d="M274.8 241L274.7 243.5" stroke-width="33.4"/>
    <path d="M274.7 243.5L274.5 246" stroke-width="33.5"/>
    <path d="M274.5 246L274.1 248.6" stroke-width="33.6"/>
    <path d="M274.1 248.6L273.5 251.1" stroke-width="33.6"/>
    <path d="M273.5 251.1L272.7 253.7" stroke-width="33.6"/>
    <path d="M272.7 253.7L271.7 256.2" stroke-width="33.6"/>
    <path d="M271.7 256.2L270.6 258.7" stroke-width="33.6"/>
    <path d="M270.6 258.7L269.2 261.2" stroke-width="33.5"/>
    <path d="M269.2 261.2L267.7 263.7" stroke-width="33.4"/>
    <path d="M267.7 263.7L266 266.2" stroke-width="33.3"/>
    <path d="M266 266.2L264 268.6" stroke-width="33.2"/>
    <path d="M264 268.6L261.9 271" stroke-width="33.1"/>
    <path d="M261.9 271L259.6 273.3" stroke-width="33"/>
    <path d="M259.6 273.3L257 275.6" stroke-width="32.8"/>
    <path d="M257 275.6L254.3 277.9" stroke-width="32.7"/>
    <path d="M254.3 277.9L251.4 280.1" stroke-width="32.5"/>
    <path d="M251.4 280.1L248.2 282.2" stroke-width="32.4"/>
    <path d="M248.2 282.2L244.9 284.3" stroke-width="32.2"/>
    <path d="M244.9 284.3L241.3 286.3" stroke-width="32"/>
    <path d="M241.3 286.3L237.5 288.2" stroke-width="31.8"/>
    <path d="M237.5 288.2L233.5 290" stroke-width="31.6"/>
    <path d="M233.5 290L229.3 291.8" stroke-width="31.4"/>
    <path d="M229.3 291.8L224.9 293.5" stroke-width="31.2"/>
    <path d="M224.9 293.5L221.6 294.6" stroke-width="31"/>
    <path d="M221.6 294.6L218.4 295.5" stroke-width="30.8"/>
    <path d="M218.4 295.5L215.3 296.5" stroke-width="30.5"/>
    <path d="M215.3 296.5L212.1 297.3" stroke-width="30.3"/>
    <path d="M212.1 297.3L209 298" stroke-width="30"/>
    <path d="M209 298L206 298.7" stroke-width="29.8"/>
    <path d="M206 298.7L202.9 299.2" stroke-width="29.5"/>
    <path d="M202.9 299.2L199.9 299.7" stroke-width="29.3"/>
    <path d="M199.9 299.7L197 300.1" stroke-width="29"/>
    <path d="M197 300.1L194 300.5" stroke-width="28.7"/>
    <path d="M194 300.5L191.2 300.7" stroke-width="28.4"/>
    <path d="M191.2 300.7L188.3 300.9" stroke-width="28.1"/>
    <path d="M188.3 300.9L185.5 301" stroke-width="27.8"/>
    <path d="M185.5 301L182.7 301" stroke-width="27.5"/>
    <path d="M182.7 301L179.9 300.9" stroke-width="27.1"/>
    <path d="M179.9 300.9L177.2 300.8" stroke-width="26.8"/>
    <path d="M177.2 300.8L174.5 300.6" stroke-width="26.4"/>
    <path d="M174.5 300.6L171.8 300.3" stroke-width="26"/>
    <path d="M171.8 300.3L169.2 299.9" stroke-width="25.7"/>
    <path d="M169.2 299.9L166.6 299.4" stroke-width="25.1"/>
    <path d="M166.6 299.4L164.1 298.9" stroke-width="24.1"/>
    <path d="M164.1 298.9L161.6 298.3" stroke-width="23"/>
    <path d="M161.6 298.3L159.1 297.6" stroke-width="22"/>
    <path d="M159.1 297.6L156.6 296.8" stroke-width="21"/>
    <path d="M156.6 296.8L154.2 296" stroke-width="20"/>
    <path d="M154.2 296L151.8 295.1" stroke-width="19"/>
    <path d="M151.8 295.1L149.5 294.1" stroke-width="17.9"/>
    <path d="M149.5 294.1L147.2 293.1" stroke-width="16.9"/>
    <path d="M147.2 293.1L144.9 291.9" stroke-width="15.9"/>
    <path d="M144.9 291.9L142.6 290.7" stroke-width="14.9"/>
    <path d="M142.6 290.7L140.4 289.4" stroke-width="13.9"/>
    <path d="M140.4 289.4L138.2 288.1" stroke-width="12.9"/>
    <path d="M138.2 288.1L136.1 286.7" stroke-width="11.9"/>
    <path d="M136.1 286.7L134 285.2" stroke-width="10.8"/>
    <path d="M134 285.2L131.9 283.6" stroke-width="9.8"/>
    <path d="M131.9 283.6L129.8 282" stroke-width="8.9"/>
    <path d="M129.8 282L127.8 280.3" stroke-width="7.9"/>
    <path d="M127.8 280.3L125.8 278.5" stroke-width="6.9"/>
    <path d="M125.8 278.5L123.9 276.6" stroke-width="5.9"/>
    <path d="M123.9 276.6L122 274.7" stroke-width="5"/>
    <path d="M387.8 202.2L382.1 201.7" stroke-width="5"/>
    <path d="M382.1 201.7L376.3 201.4" stroke-width="5.9"/>
    <path d="M376.3 201.4L370.4 201.3" stroke-width="6.9"/>
    <path d="M370.4 201.3L364.6 201.5" stroke-width="7.9"/>
    <path d="M364.6 201.5L358.7 201.8" stroke-width="8.9"/>
    <path d="M358.7 201.8L352.8 202.3" stroke-width="9.8"/>
    <path d="M352.8 202.3L346.9 203.1" stroke-width="10.8"/>
    <path d="M346.9 203.1L341 204" stroke-width="11.9"/>
    <path d="M341 204L335.2 205.1" stroke-width="12.9"/>
    <path d="M335.2 205.1L329.4 206.3" stroke-width="13.9"/>
    <path d="M329.4 206.3L323.6 207.8" stroke-width="14.9"/>
    <path d="M323.6 207.8L317.9 209.4" stroke-width="15.9"/>
    <path d="M317.9 209.4L312.3 211.1" stroke-width="16.9"/>
    <path d="M312.3 211.1L306.8 213.1" stroke-width="17.9"/>
    <path d="M306.8 213.1L301.5 215.1" stroke-width="19"/>
    <path d="M301.5 215.1L296.2 217.3" stroke-width="20"/>
    <path d="M296.2 217.3L291 219.7" stroke-width="21"/>
    <path d="M291 219.7L286 222.2" stroke-width="22"/>
    <path d="M286 222.2L281.2 224.8" stroke-width="23"/>
    <path d="M281.2 224.8L276.6 227.5" stroke-width="24.1"/>
    <path d="M276.6 227.5L272.1 230.4" stroke-width="25.1"/>
    <path d="M272.1 230.4L267.8 233.4" stroke-width="25.7"/>
    <path d="M267.8 233.4L263.7 236.5" stroke-width="26"/>
    <path d="M263.7 236.5L259.9 239.7" stroke-width="26.4"/>
    <path d="M259.9 239.7L256.2 243" stroke-width="26.8"/>
    <path d="M256.2 243L252.9 246.4" stroke-width="27.1"/>
    <path d="M252.9 246.4L249.8 249.9" stroke-width="27.4"/>
    <path d="M249.8 249.9L246.9 253.4" stroke-width="27.8"/>
    <path d="M246.9 253.4L244.4 257.1" stroke-width="28.1"/>
    <path d="M244.4 257.1L242.1 260.8" stroke-width="28.4"/>
    <path d="M242.1 260.8L240.2 264.6" stroke-width="28.7"/>
    <path d="M240.2 264.6L238.6 268.5" stroke-width="29"/>
    <path d="M238.6 268.5L237.3 272.4" stroke-width="29.2"/>
    <path d="M237.3 272.4L236.4 276.4" stroke-width="29.5"/>
    <path d="M236.4 276.4L235.8 280.4" stroke-width="29.8"/>
    <path d="M235.8 280.4L235.6 284.5" stroke-width="30"/>
    <path d="M235.6 284.5L235.8 288.6" stroke-width="30.3"/>
    <path d="M235.8 288.6L236.4 292.8" stroke-width="30.5"/>
    <path d="M236.4 292.8L237.5 297" stroke-width="30.7"/>
    <path d="M237.5 297L238.9 301.2" stroke-width="30.9"/>
    <path d="M238.9 301.2L240.4 304.6" stroke-width="31.1"/>
    <path d="M240.4 304.6L242.2 307.9" stroke-width="31.3"/>
    <path d="M242.2 307.9L244.2 310.8" stroke-width="31.4"/>
    <path d="M244.2 310.8L246.4 313.6" stroke-width="31.6"/>
    <path d="M246.4 313.6L248.9 316.1" stroke-width="31.7"/>
    <path d="M248.9 316.1L251.5 318.5" stroke-width="31.8"/>
    <path d="M251.5 318.5L254.4 320.6" stroke-width="31.8"/>
    <path d="M254.4 320.6L257.4 322.5" stroke-width="31.9"/>
    <path d="M257.4 322.5L260.6 324.3" stroke-width="31.9"/>
    <path d="M260.6 324.3L263.9 325.9" stroke-width="31.9"/>
    <path d="M263.9 325.9L267.4 327.4" stroke-width="31.8"/>
    <path d="M267.4 327.4L271 328.7" stroke-width="31.8"/>
    <path d="M271 328.7L274.7 329.9" stroke-width="31.6"/>
    <path d="M274.7 329.9L278.5 330.9" stroke-width="31.5"/>
    <path d="M278.5 330.9L282.4 331.8" stroke-width="31.2"/>
    <path d="M282.4 331.8L286.4 332.7" stroke-width="31"/>
    <path d="M286.4 332.7L290.5 333.4" stroke-width="30.7"/>
    <path d="M290.5 333.4L294.6 334.1" stroke-width="30.3"/>
    <path d="M294.6 334.1L298.8 334.6" stroke-width="30"/>
    <path d="M298.8 334.6L303 335.2" stroke-width="29.6"/>
    <path d="M303 335.2L307.3 335.6" stroke-width="29.1"/>
    <path d="M307.3 335.6L311.5 336" stroke-width="28.7"/>
    <path d="M311.5 336L315.8 336.4" stroke-width="28.2"/>
    <path d="M315.8 336.4L320 336.8" stroke-width="27.7"/>
    <path d="M320 336.8L324.3 337.1" stroke-width="27.3"/>
    <path d="M324.3 337.1L328.5 337.4" stroke-width="26.8"/>
    <path d="M328.5 337.4L332.6 337.8" stroke-width="26.4"/>
    <path d="M332.6 337.8L336.7 338.2" stroke-width="26"/>
    <path d="M336.7 338.2L340.7 338.5" stroke-width="25.6"/>
    <path d="M340.7 338.5L344.6 339" stroke-width="25.3"/>
    <path d="M344.6 339L348.5 339.4" stroke-width="25.1"/>
    <path d="M348.5 339.4L352.2 340" stroke-width="24.9"/>
    <path d="M352.2 340L355.8 340.6" stroke-width="24.8"/>
    <path d="M355.8 340.6L359.3 341.3" stroke-width="24.8"/>
    <path d="M359.3 341.3L362.7 342" stroke-width="24.8"/>
    <path d="M362.7 342L365.9 342.9" stroke-width="24.9"/>
    <path d="M365.9 342.9L368.9 343.9" stroke-width="25.1"/>
    <path d="M368.9 343.9L371.8 344.9" stroke-width="25.4"/>
    <path d="M371.8 344.9L374.5 346.2" stroke-width="25.8"/>
    <path d="M374.5 346.2L376.9 347.5" stroke-width="26.1"/>
    <path d="M376.9 347.5L379.7 349.2" stroke-width="26.6"/>
    <path d="M379.7 349.2L382.3 350.9" stroke-width="27.1"/>
    <path d="M382.3 350.9L384.7 352.8" stroke-width="27.6"/>
    <path d="M384.7 352.8L387 354.7" stroke-width="28.1"/>
    <path d="M387 354.7L389.2 356.7" stroke-width="28.7"/>
    <path d="M389.2 356.7L391.2 358.7" stroke-width="29.2"/>
    <path d="M391.2 358.7L393 360.8" stroke-width="29.7"/>
    <path d="M393 360.8L394.6 363" stroke-width="30.2"/>
    <path d="M394.6 363L396.1 365.3" stroke-width="30.7"/>
    <path d="M396.1 365.3L397.5 367.5" stroke-width="31.2"/>
    <path d="M397.5 367.5L398.6 369.9" stroke-width="31.6"/>
    <path d="M398.6 369.9L399.6 372.3" stroke-width="32"/>
    <path d="M399.6 372.3L400.5 374.7" stroke-width="32.3"/>
    <path d="M400.5 374.7L401.1 377.1" stroke-width="32.6"/>
    <path d="M401.1 377.1L401.6 379.6" stroke-width="32.9"/>
    <path d="M401.6 379.6L401.9 382.1" stroke-width="33.1"/>
    <path d="M401.9 382.1L402.1 384.6" stroke-width="33.3"/>
    <path d="M402.1 384.6L402 387.1" stroke-width="33.4"/>
    <path d="M402 387.1L401.8 389.7" stroke-width="33.5"/>
    <path d="M401.8 389.7L401.4 392.2" stroke-width="33.6"/>
    <path d="M401.4 392.2L400.8 394.8" stroke-width="33.6"/>
    <path d="M400.8 394.8L400 397.3" stroke-width="33.6"/>
    <path d="M400 397.3L399 399.8" stroke-width="33.6"/>
    <path d="M399 399.8L397.9 402.4" stroke-width="33.6"/>
    <path d="M397.9 402.4L396.5 404.9" stroke-width="33.5"/>
    <path d="M396.5 404.9L395 407.3" stroke-width="33.4"/>
    <path d="M395 407.3L393.3 409.8" stroke-width="33.3"/>
    <path d="M393.3 409.8L391.3 412.2" stroke-width="33.2"/>
    <path d="M391.3 412.2L389.2 414.6" stroke-width="33.1"/>
    <path d="M389.2 414.6L386.9 416.9" stroke-width="33"/>
    <path d="M386.9 416.9L384.3 419.2" stroke-width="32.8"/>
    <path d="M384.3 419.2L381.6 421.5" stroke-width="32.7"/>
    <path d="M381.6 421.5L378.7 423.7" stroke-width="32.5"/>
    <path d="M378.7 423.7L375.5 425.8" stroke-width="32.4"/>
    <path d="M375.5 425.8L372.2 427.9" stroke-width="32.2"/>
    <path d="M372.2 427.9L368.6 429.9" stroke-width="32"/>
    <path d="M368.6 429.9L364.8 431.8" stroke-width="31.8"/>
    <path d="M364.8 431.8L360.8 433.7" stroke-width="31.6"/>
    <path d="M360.8 433.7L356.6 435.4" stroke-width="31.4"/>
    <path d="M356.6 435.4L352.2 437.1" stroke-width="31.2"/>
    <path d="M352.2 437.1L348.9 438.2" stroke-width="31"/>
    <path d="M348.9 438.2L345.7 439.2" stroke-width="30.8"/>
    <path d="M345.7 439.2L342.6 440.1" stroke-width="30.5"/>
    <path d="M342.6 440.1L339.4 440.9" stroke-width="30.3"/>
    <path d="M339.4 440.9L336.3 441.6" stroke-width="30"/>
    <path d="M336.3 441.6L333.3 442.3" stroke-width="29.8"/>
    <path d="M333.3 442.3L330.2 442.9" stroke-width="29.5"/>
    <path d="M330.2 442.9L327.3 443.4" stroke-width="29.3"/>
    <path d="M327.3 443.4L324.3 443.8" stroke-width="29"/>
    <path d="M324.3 443.8L321.4 444.1" stroke-width="28.7"/>
    <path d="M321.4 444.1L318.5 444.4" stroke-width="28.4"/>
    <path d="M318.5 444.4L315.6 444.5" stroke-width="28.1"/>
    <path d="M315.6 444.5L312.8 444.6" stroke-width="27.8"/>
    <path d="M312.8 444.6L310 444.6" stroke-width="27.5"/>
    <path d="M310 444.6L307.2 444.6" stroke-width="27.1"/>
    <path d="M307.2 444.6L304.5 444.4" stroke-width="26.8"/>
    <path d="M304.5 444.4L301.8 444.2" stroke-width="26.4"/>
    <path d="M301.8 444.2L299.2 443.9" stroke-width="26"/>
    <path d="M299.2 443.9L296.5 443.5" stroke-width="25.7"/>
    <path d="M296.5 443.5L294 443.1" stroke-width="25.1"/>
    <path d="M294 443.1L291.4 442.5" stroke-width="24.1"/>
    <path d="M291.4 442.5L288.9 441.9" stroke-width="23"/>
    <path d="M288.9 441.9L286.4 441.2" stroke-width="22"/>
    <path d="M286.4 441.2L283.9 440.5" stroke-width="21"/>
    <path d="M283.9 440.5L281.5 439.6" stroke-width="20"/>
    <path d="M281.5 439.6L279.1 438.7" stroke-width="19"/>
    <path d="M279.1 438.7L276.8 437.7" stroke-width="17.9"/>
    <path d="M276.8 437.7L274.5 436.7" stroke-width="16.9"/>
    <path d="M274.5 436.7L272.2 435.6" stroke-width="15.9"/>
    <path d="M272.2 435.6L269.9 434.4" stroke-width="14.9"/>
    <path d="M269.9 434.4L267.7 433.1" stroke-width="13.9"/>
    <path d="M267.7 433.1L265.5 431.7" stroke-width="12.9"/>
    <path d="M265.5 431.7L263.4 430.3" stroke-width="11.9"/>
    <path d="M263.4 430.3L261.3 428.8" stroke-width="10.8"/>
    <path d="M261.3 428.8L259.2 427.2" stroke-width="9.8"/>
    <path d="M259.2 427.2L257.1 425.6" stroke-width="8.9"/>
    <path d="M257.1 425.6L255.1 423.9" stroke-width="7.9"/>
    <path d="M255.1 423.9L253.1 422.1" stroke-width="6.9"/>
    <path d="M253.1 422.1L251.2 420.3" stroke-width="5.9"/>
    <path d="M251.2 420.3L249.3 418.4" stroke-width="5"/>
  </g>
</svg>
